<?xml version="1.0" standalone="no"?>
<!DOCTYPE svg PUBLIC "-//W3C//DTD SVG 20010904//EN"
 "http://www.w3.org/TR/2001/REC-SVG-20010904/DTD/svg10.dtd">
<svg version="1.0" xmlns="http://www.w3.org/2000/svg"
 width="1267.000000pt" height="675.000000pt" viewBox="0 0 1267.000000 675.000000"
 preserveAspectRatio="xMidYMid meet">

<g transform="translate(0.000000,675.000000) scale(0.100000,-0.100000)"
fill="yellow" stroke="white">
<path d="M7103 6460 c-40 -24 -47 -36 -33 -57 10 -16 10 -15 5 4 -4 16 0 26
19 39 14 9 33 14 41 10 8 -3 15 -1 15 4 0 18 -17 18 -47 0z"/>
<path fill="yellow" d="M7143 6360 c0 -25 2 -35 4 -22 2 12 2 32 0 45 -2 12 -4 2 -4 -23z"/>
<path fill="yellow" d="M7065 6360 c-4 -12 -5 -24 -2 -27 3 -2 8 5 12 17 4 12 5 24 2 27 -3
2 -8 -5 -12 -17z"/>
<path d="M7060 6301 c0 -26 -28 -34 -120 -36 -49 -1 -80 3 -90 11 -12 10 -23
9 -59 -10 -25 -12 -47 -28 -49 -36 -3 -10 4 -7 19 6 33 29 73 38 89 19 7 -8
17 -12 22 -9 6 4 27 7 48 8 l37 2 42 -84 42 -85 33 32 c17 17 37 31 43 31 6 0
17 7 24 16 12 15 15 14 31 -6 10 -12 18 -17 18 -12 0 6 -4 14 -10 17 -5 3 -10
21 -11 38 0 29 -1 30 -9 10 -5 -12 -22 -30 -37 -39 -15 -9 -38 -29 -50 -43
-12 -14 -24 -23 -26 -21 -3 3 -21 38 -42 79 -27 54 -32 72 -20 67 26 -10 85
20 85 43 0 12 -2 21 -5 21 -3 0 -5 -9 -5 -19z"/>
<path fill="yellow" d="M6639 6168 c-33 -30 -22 -30 13 0 10 8 25 12 35 7 16 -6 15 -9 -10
-29 -16 -13 -34 -32 -40 -43 -12 -20 -68 -97 -87 -120 -35 -42 17 -85 69 -58
l28 14 5 -43 c3 -24 13 -58 22 -76 9 -18 16 -50 16 -70 0 -44 6 -52 31 -39 10
5 28 13 39 19 10 5 26 7 34 4 8 -3 17 0 21 6 5 8 11 7 22 -2 21 -17 74 -11 98
12 27 25 45 26 38 1 -3 -11 -22 -26 -43 -35 -38 -15 -50 -29 -133 -155 -25
-38 -69 -86 -109 -118 -38 -30 -68 -57 -68 -61 0 -4 -4 -13 -9 -21 -12 -18
-49 2 -61 35 -5 13 -21 29 -35 34 -25 9 -34 34 -16 44 5 3 9 16 9 28 0 13 1
30 3 38 3 12 -4 14 -31 12 -19 -1 -39 -7 -44 -12 -6 -6 -19 -10 -31 -10 -32 0
-56 -22 -64 -60 -4 -22 -15 -39 -29 -45 -12 -5 -20 -16 -17 -23 4 -12 -17 -24
-100 -57 -11 -5 -42 -7 -70 -6 -44 2 -53 -1 -78 -28 -30 -33 -23 -32 -194 -33
-18 0 -40 6 -50 13 -13 11 -17 11 -20 2 -3 -7 -12 -13 -21 -13 -9 -1 -30 -11
-46 -24 -15 -13 -36 -21 -46 -19 -14 4 -19 -4 -24 -38 -4 -23 -4 -44 -1 -47 3
-3 5 5 5 17 0 17 4 21 15 17 22 -8 133 -84 139 -95 9 -13 -51 -31 -115 -34
l-54 -2 0 42 c0 59 -12 44 -17 -23 -3 -31 -9 -59 -15 -62 -12 -8 -12 -82 0
-82 5 0 8 15 6 33 -3 56 9 77 46 77 29 0 34 -4 40 -30 4 -17 4 -48 0 -69 -4
-27 -2 -49 9 -70 21 -39 20 -53 -1 -49 -10 1 -29 -5 -43 -15 l-25 -18 -3 36
c-4 42 -10 43 -37 8 -25 -31 -45 -24 -45 15 -1 23 -2 25 -11 10 -5 -10 -19
-18 -29 -18 -11 0 -20 -4 -20 -10 0 -5 -9 -10 -19 -10 -28 0 -31 -8 -21 -82 5
-45 15 -74 29 -89 12 -13 21 -31 21 -42 0 -10 4 -26 9 -35 13 -26 2 -84 -16
-78 -8 3 -11 1 -8 -4 3 -6 17 -7 31 -4 22 6 24 3 24 -30 0 -29 -4 -36 -20 -36
-11 0 -19 3 -19 8 4 22 -4 31 -33 37 -30 7 -31 8 -13 21 14 10 15 14 4 14 -24
0 -72 -84 -64 -112 6 -18 35 -26 35 -8 0 5 7 7 15 4 8 -4 27 1 41 10 13 10 39
19 57 20 18 2 44 9 59 15 37 14 86 3 101 -23 6 -11 17 -41 24 -66 12 -45 12
-45 7 -5 l-6 39 27 -27 c15 -15 31 -27 35 -27 5 0 18 20 30 45 33 69 81 105
138 105 100 1 161 23 322 117 147 85 159 90 227 96 80 6 101 15 154 62 28 25
50 34 90 40 30 3 88 16 129 27 41 11 105 24 142 28 52 6 77 15 110 39 l42 31
135 0 c179 0 181 1 181 57 l0 45 35 -27 c35 -26 36 -26 151 -19 94 5 118 4
126 -7 7 -11 8 -10 6 5 -2 10 -13 23 -26 27 -13 5 -21 5 -18 0 3 -5 -40 -11
-97 -13 -100 -5 -103 -4 -138 24 -20 15 -40 28 -43 28 -3 0 -6 -22 -6 -49 l0
-50 -57 -7 c-31 -4 -99 -4 -152 -1 l-95 6 -47 -35 c-38 -28 -61 -36 -121 -44
-40 -5 -95 -16 -122 -25 -27 -8 -55 -15 -62 -15 -14 0 -39 73 -35 101 1 9 -10
24 -24 33 -14 9 -25 25 -25 36 0 10 -4 22 -10 25 -5 3 -10 19 -10 36 0 16 -9
38 -21 50 -20 20 -21 52 -6 229 0 3 -4 14 -8 24 -5 12 -5 21 2 23 26 9 44 31
47 59 2 17 28 65 58 107 29 42 65 94 80 117 15 22 43 46 62 54 20 8 42 28 51
45 10 21 36 41 76 61 33 17 57 35 54 40 -3 6 2 23 12 40 14 25 15 32 4 42 -11
11 -13 10 -7 0 4 -7 1 -24 -8 -37 -9 -13 -16 -30 -16 -37 0 -16 -97 -68 -126
-68 -11 0 -31 -11 -44 -25 -24 -25 -73 -34 -85 -15 -8 12 -74 5 -88 -9 -21
-21 -47 -13 -47 14 0 13 -9 42 -21 64 -11 22 -22 59 -24 83 -4 46 -3 46 -72
32 -75 -15 -38 60 105 211 41 44 57 70 28 46 -11 -9 -20 -9 -34 -2 -16 8 -26
4 -53 -21z m-147 -660 c-2 -18 -9 -39 -14 -45 -13 -16 6 -41 40 -54 13 -5 20
-14 17 -19 -7 -11 8 -28 40 -46 24 -13 29 -34 20 -81 -10 -56 -35 -73 -107
-73 -93 0 -121 -21 -147 -108 -27 -90 -45 -105 -120 -105 -32 1 -68 4 -80 8
-20 6 -21 3 -21 -49 0 -43 -3 -56 -15 -56 -8 0 -15 8 -15 19 0 16 -30 35 -52
32 -3 0 -22 20 -42 44 -20 24 -42 42 -49 39 -13 -5 -35 10 -147 98 -32 25 -77
56 -100 69 -22 12 -40 29 -40 37 0 7 6 12 13 9 6 -2 26 6 44 19 17 13 44 23
60 23 15 -1 78 -1 138 0 108 2 111 3 142 33 29 28 36 30 78 25 38 -6 56 -2
110 24 36 17 65 36 65 44 0 7 11 20 25 29 18 12 24 23 20 36 -8 24 27 60 58
60 12 0 29 5 37 10 31 20 47 12 42 -22z m225 -98 c-7 -8 -19 -20 -28 -27 -14
-11 -22 -96 -22 -235 0 -36 23 -89 35 -82 6 4 8 -5 4 -23 -5 -21 -2 -34 9 -43
8 -7 15 -21 15 -31 0 -10 11 -26 25 -35 14 -9 22 -20 19 -25 -5 -8 5 -54 21
-90 5 -14 -4 -18 -51 -24 -45 -5 -64 -13 -87 -36 -43 -44 -74 -56 -156 -63
-68 -6 -83 -12 -200 -81 -163 -96 -161 -95 -161 -56 0 20 -9 41 -23 54 -12 13
-30 35 -40 50 -12 19 -26 27 -47 27 -32 0 -35 9 -45 155 -2 39 -9 88 -14 110
l-10 39 40 -47 c22 -26 47 -47 54 -47 8 0 17 -9 20 -20 7 -22 22 -25 45 -10
10 6 14 23 12 53 l-1 44 65 -4 c95 -6 127 16 155 108 26 85 43 98 135 104 95
7 120 31 126 123 4 64 5 66 53 109 34 29 51 39 56 31 5 -7 2 -19 -4 -28z
m-827 -382 c68 -48 78 -73 82 -217 4 -102 -7 -114 -74 -91 -29 11 -51 28 -73
60 -22 32 -40 46 -59 48 -21 3 -32 13 -46 45 -10 23 -16 45 -13 51 4 5 7 34 7
64 l1 55 45 12 c67 18 66 18 130 -27z m-346 -213 c6 -17 37 -20 53 -4 17 17
26 -67 11 -99 -12 -24 -19 -27 -75 -30 -69 -3 -65 -8 -77 86 -6 37 -4 42 13
42 11 0 23 5 26 10 9 15 42 12 49 -5z m249 -16 c10 -11 23 -31 29 -44 6 -14
31 -32 59 -45 l49 -21 -16 -32 c-18 -34 -66 -101 -126 -173 -21 -25 -43 -55
-49 -66 l-12 -22 -16 21 c-9 11 -34 23 -55 27 l-39 7 5 157 6 156 28 22 c15
13 31 21 34 19 3 -2 12 0 20 6 25 15 65 10 83 -12z m202 -142 c14 -55 32 -78
92 -113 25 -14 42 -28 40 -31 -10 -9 -143 -33 -184 -33 -35 0 -50 -7 -83 -36
-22 -20 -40 -43 -40 -51 0 -7 -7 -25 -16 -38 -17 -26 -29 -22 -52 22 -10 19
-7 27 23 65 19 24 47 61 61 83 15 22 42 58 61 79 18 22 33 45 33 51 0 18 31
56 42 53 6 -2 16 -25 23 -51z m-385 -21 c0 -44 0 -44 -40 -51 -44 -7 -60 -2
-60 23 0 9 -7 26 -16 37 -15 19 -13 20 43 26 32 3 61 6 66 7 4 1 7 -18 7 -42z
m456 16 c3 -15 15 -32 27 -37 15 -7 23 -21 25 -43 l3 -32 -35 21 c-46 27 -76
65 -76 95 0 19 5 24 25 24 20 0 27 -6 31 -28z m-456 -143 c0 -47 -4 -65 -17
-74 -26 -19 -43 -7 -43 30 0 18 -6 35 -12 38 -7 2 -13 18 -13 35 0 31 1 32 43
32 l42 0 0 -61z m-120 -78 c0 -24 -25 -45 -45 -38 -8 4 -17 1 -21 -4 -4 -8
-10 -7 -17 0 -7 7 -7 18 3 36 17 32 80 37 80 6z"/>
<path d="M6563 6133 c-13 -8 -23 -22 -23 -29 0 -15 -75 -74 -94 -74 -6 0 -16
-10 -21 -22 -7 -16 -17 -22 -32 -20 -12 2 -25 -2 -29 -9 -4 -7 -2 -10 7 -7 8
3 24 2 35 -3 18 -6 23 -3 27 20 4 19 16 32 35 40 28 12 100 71 86 71 -4 0 1 9
11 20 10 11 22 17 28 13 6 -3 7 -1 3 5 -9 14 -6 15 -33 -5z"/>
<path d="M7168 6093 c-9 -10 -19 -38 -23 -63 -4 -25 -12 -51 -18 -58 -5 -7 -7
-15 -4 -18 8 -9 23 26 31 71 4 22 14 50 22 63 17 26 13 29 -8 5z"/>
<path d="M6340 5940 c-8 -5 -12 -11 -9 -14 2 -3 11 -1 19 4 8 5 12 11 9 14 -2
3 -11 1 -19 -4z"/>
<path d="M6315 5883 l-17 -28 23 22 c12 12 20 25 17 28 -3 3 -13 -7 -23 -22z"/>
<path d="M6230 5896 c0 -2 9 -6 20 -9 11 -3 18 -1 14 4 -5 9 -34 13 -34 5z"/>
<path d="M6204 5857 c-11 -14 -24 -33 -29 -42 -7 -11 -28 -20 -55 -24 -24 -3
-45 -12 -46 -19 -1 -7 0 -8 3 -2 2 5 18 10 33 10 36 0 80 19 80 35 0 6 9 21
21 34 12 12 19 25 16 27 -3 3 -13 -6 -23 -19z"/>
<path d="M7100 5811 c0 -6 9 -19 20 -28 35 -30 58 -55 110 -122 50 -64 59 -81
40 -81 -5 0 -10 -10 -10 -22 0 -21 2 -20 15 6 15 29 15 31 -15 70 -17 23 -47
62 -66 88 -19 26 -44 50 -55 53 -10 4 -19 13 -19 20 0 8 -4 17 -10 20 -5 3
-10 1 -10 -4z"/>
<path d="M6045 5701 c-3 -12 -10 -21 -15 -21 -4 0 -6 -9 -3 -20 3 -12 -1 -22
-11 -26 -19 -7 -21 -31 -4 -36 7 -3 3 -13 -11 -27 -21 -21 -25 -22 -33 -7 -12
22 -25 20 -39 -6 -11 -22 -10 -22 7 -6 16 16 18 16 30 0 12 -16 15 -15 40 10
21 21 25 30 16 41 -9 10 -9 16 0 25 13 13 39 84 33 90 -2 2 -6 -6 -10 -17z"/>
<path d="M7307 5513 c36 -34 31 -77 -12 -103 -19 -12 -40 -31 -47 -43 -7 -15
0 -11 22 11 18 18 35 30 38 28 3 -3 11 -1 19 5 16 14 18 99 1 99 -6 0 -19 6
-28 13 -9 6 -6 2 7 -10z"/>
<path d="M5921 5514 c0 -11 3 -14 6 -6 3 7 2 16 -1 19 -3 4 -6 -2 -5 -13z"/>
<path d="M5929 5470 c-3 -18 -16 -31 -46 -45 -24 -11 -43 -26 -43 -35 -1 -20
-24 -50 -39 -50 -6 0 -11 -7 -11 -16 0 -12 8 -8 30 14 17 18 30 38 30 46 0 7
13 19 29 26 39 16 64 44 59 67 -4 14 -6 12 -9 -7z"/>
<path d="M7196 5335 c-11 -8 -17 -17 -14 -20 3 -3 16 3 29 14 27 23 14 28 -15
6z"/>
<path d="M7171 5290 c0 -17 20 -42 70 -85 24 -21 20 -15 -12 20 -26 28 -49 57
-52 65 -5 13 -5 13 -6 0z"/>
<path d="M7322 5130 c24 -28 48 -50 53 -50 6 0 24 8 41 19 17 10 43 19 58 19
16 0 31 4 35 10 3 5 29 13 57 16 42 6 58 4 93 -15 24 -12 47 -31 51 -43 6 -15
9 -16 9 -5 1 18 -18 35 -67 62 -26 15 -44 17 -87 12 -31 -4 -58 -11 -61 -16
-3 -5 -19 -9 -36 -9 -16 0 -41 -9 -55 -20 -36 -28 -45 -26 -79 20 -16 21 -35
42 -42 45 -7 2 6 -18 30 -45z"/>
<path d="M7710 5043 c0 -13 27 -49 33 -43 3 3 -3 16 -14 29 -10 13 -19 19 -19
14z"/>
<path d="M8011 4916 c-7 -8 -27 -17 -45 -20 -18 -3 -41 -13 -52 -20 -12 -10 2
-7 41 6 33 11 63 24 66 30 4 7 9 7 13 0 3 -6 16 -8 28 -4 16 4 20 1 16 -9 -3
-8 -11 -31 -19 -53 -13 -35 -22 -42 -109 -84 -93 -44 -97 -45 -187 -43 -79 2
-107 -2 -215 -34 -67 -19 -215 -70 -326 -112 -176 -66 -213 -84 -270 -129 -37
-29 -92 -63 -123 -74 -54 -21 -57 -24 -63 -63 -9 -55 -62 -107 -111 -109 -39
-1 -69 -27 -63 -55 2 -11 -6 -23 -21 -31 -30 -16 -35 -11 -33 37 2 54 -36 96
-97 105 -39 6 -51 2 -112 -34 -53 -31 -83 -60 -135 -125 -52 -68 -64 -88 -54
-99 9 -12 2 -20 -34 -45 -41 -28 -51 -31 -126 -31 -48 0 -105 7 -140 18 l-60
17 0 41 c0 37 -4 44 -44 72 -33 24 -45 40 -50 68 -10 48 -16 39 -9 -11 4 -34
12 -44 49 -68 41 -27 44 -31 42 -69 l-3 -40 60 -19 c41 -13 90 -19 154 -19 91
0 94 1 142 36 47 34 61 54 39 54 -19 0 -10 18 50 94 62 77 78 88 100 61 7 -8
19 -15 27 -15 10 0 12 -6 8 -21 -14 -44 -46 -106 -77 -146 -26 -36 -30 -46
-21 -65 8 -18 7 -26 -4 -37 -12 -11 -17 -11 -23 -1 -17 28 -101 16 -126 -18
-8 -11 -13 -12 -18 -4 -9 14 -46 16 -46 3 0 -5 -10 -11 -22 -13 -13 -2 -24 -9
-24 -15 -1 -7 -3 -16 -4 -20 -1 -5 -2 -11 -1 -15 0 -5 -3 -8 -9 -8 -5 0 -10
-6 -10 -14 0 -18 -19 -33 -53 -41 -26 -7 -27 -6 -17 20 6 15 9 28 8 29 -29 17
-63 25 -70 18 -10 -10 -68 6 -80 22 -10 14 -21 -39 -13 -63 5 -16 1 -22 -22
-27 -15 -4 -31 -12 -35 -18 -12 -17 -9 -46 3 -46 6 0 9 6 6 14 -5 13 20 45 30
39 1 -2 10 -3 18 -3 12 0 15 9 13 35 -1 19 1 37 4 40 9 9 108 -28 101 -38 -2
-4 0 -13 5 -20 6 -7 9 -24 7 -39 -2 -20 2 -29 16 -33 10 -4 19 -11 19 -16 0
-5 17 -9 38 -9 29 0 44 -8 71 -35 19 -20 35 -44 36 -55 1 -11 16 -38 34 -60
18 -23 31 -44 27 -47 -3 -3 -44 -2 -91 2 -82 7 -86 8 -82 28 3 12 9 48 12 80
5 37 13 61 24 67 11 7 -6 10 -59 10 -41 0 -115 9 -165 19 -83 17 -106 19 -93
6 2 -3 68 -15 147 -27 l141 -23 -6 -45 c-3 -25 -9 -59 -13 -75 l-6 -31 -195
22 c-107 13 -196 23 -197 23 -8 2 -1 32 13 59 14 29 19 32 65 32 27 0 49 3 49
8 0 4 -24 5 -54 4 -49 -3 -54 -6 -70 -38 -21 -44 -20 -63 2 -87 12 -15 14 -21
5 -24 -7 -3 -13 -9 -13 -14 0 -4 7 -6 15 -3 8 4 15 15 15 25 0 10 7 19 15 19
13 0 369 -38 507 -54 21 -2 41 0 44 5 3 5 18 0 34 -11 15 -11 32 -20 37 -20
14 0 43 -60 43 -89 0 -15 -9 -38 -20 -51 -33 -38 -30 -67 11 -129 l29 -45 -22
-23 c-12 -12 -19 -25 -16 -28 2 -3 17 8 32 24 17 17 35 27 45 24 25 -6 50 -63
40 -90 -4 -12 -10 -40 -12 -62 -2 -23 -6 -43 -9 -46 -2 -3 -2 -21 1 -40 4 -24
14 -40 30 -48 13 -7 25 -20 27 -30 1 -9 16 -30 33 -46 38 -35 43 -91 11 -118
-25 -21 -26 -52 -2 -59 9 -3 25 -10 34 -15 13 -7 16 -5 12 6 -4 8 -14 15 -24
15 -29 0 -29 12 0 52 19 26 30 34 41 27 8 -5 27 -9 43 -9 16 0 34 -8 41 -17
12 -17 15 -17 50 0 23 11 41 29 48 47 6 17 15 30 20 30 5 0 7 -7 3 -15 -3 -9
3 -24 14 -35 25 -25 35 -63 22 -86 -17 -30 -3 -54 32 -54 18 0 37 5 44 12 21
21 21 5 0 -73 l-20 -76 38 -50 c22 -27 52 -67 68 -89 44 -58 99 -114 112 -114
6 0 31 -13 55 -30 24 -16 54 -30 67 -30 21 0 22 -3 17 -39 -5 -32 -1 -44 21
-70 14 -17 34 -31 44 -31 10 0 20 -3 22 -7 2 -5 21 -17 42 -28 25 -13 46 -34
60 -60 11 -22 24 -41 28 -43 4 -2 8 -23 8 -47 0 -34 -6 -50 -29 -74 -26 -28
-29 -38 -26 -81 2 -27 7 -55 11 -61 5 -9 0 -10 -17 -6 -13 4 -50 1 -81 -5 -50
-10 -58 -15 -58 -34 0 -17 -8 -24 -30 -29 -16 -4 -30 -10 -30 -15 0 -4 -13
-13 -29 -18 -17 -6 -37 -24 -46 -41 -16 -32 -29 -39 -40 -21 -3 6 -15 10 -27
10 -20 0 -89 -28 -98 -41 -3 -3 -14 -9 -25 -13 -11 -3 -32 -17 -47 -31 -27
-25 -28 -25 -28 -5 0 26 -16 56 -47 89 -13 14 -23 35 -21 46 3 32 -11 62 -37
79 -19 13 -24 24 -22 55 1 25 -5 47 -16 59 -10 10 -16 30 -15 43 4 35 -28 36
-59 3 -24 -27 -26 -27 -39 -9 -8 10 -14 24 -14 31 0 7 -8 26 -17 42 -15 26
-16 36 -6 64 7 18 9 45 6 60 -4 21 10 49 71 140 42 62 76 123 76 134 0 12 -10
33 -21 48 -19 24 -21 35 -15 93 8 79 0 93 -52 86 -35 -4 -39 -2 -64 38 -16 24
-28 51 -28 60 0 33 11 47 31 42 12 -4 29 3 44 17 23 22 24 25 8 42 -9 10 -23
18 -32 18 -12 0 -9 -6 9 -20 23 -18 24 -20 9 -36 -26 -25 -86 0 -104 43 -8 18
-20 33 -28 33 -9 0 -17 14 -20 36 -4 21 -16 43 -31 55 -15 11 -26 26 -26 34 0
7 -6 18 -14 24 -12 10 -20 9 -38 -2 -13 -9 -36 -14 -53 -12 -52 7 -73 -4 -78
-38 -3 -26 4 -42 44 -91 26 -32 45 -64 43 -70 -6 -15 -60 -14 -75 2 -7 6 -19
12 -26 12 -7 0 -13 4 -13 9 0 5 -13 14 -30 21 -16 7 -30 19 -30 27 0 30 -43
74 -101 103 -32 17 -61 30 -64 30 -3 0 -5 -16 -5 -36 l0 -35 -27 16 c-43 26
-95 96 -130 177 -18 40 -33 68 -33 61 0 -27 54 -131 95 -184 41 -52 43 -57 29
-78 -8 -11 -11 -21 -6 -21 6 0 12 7 15 15 6 15 62 15 86 1 7 -5 15 -5 18 -2 3
3 13 0 21 -6 11 -10 17 -8 29 7 14 20 15 19 38 -9 13 -16 21 -35 19 -41 -3 -7
19 -26 51 -44 31 -17 58 -37 61 -44 3 -8 21 -13 47 -12 53 1 59 24 22 78 -27
41 -31 57 -14 57 8 0 10 14 6 39 -5 38 -4 39 27 44 17 2 39 7 48 12 13 5 20 2
25 -11 4 -11 17 -28 29 -39 12 -11 26 -37 29 -57 5 -23 13 -38 22 -38 8 0 20
-15 28 -34 8 -19 20 -36 27 -38 8 -3 12 -18 10 -41 -3 -25 5 -50 23 -81 26
-44 29 -46 71 -46 l45 0 -3 -72 c-2 -64 0 -77 21 -105 30 -40 27 -48 -65 -180
-63 -90 -70 -96 -157 -132 -39 -15 -98 -14 -123 4 -12 8 -24 12 -27 8 -4 -3
-14 0 -23 8 -14 11 -18 11 -30 -6 -8 -10 -14 -27 -14 -37 0 -10 -8 -31 -18
-46 -10 -15 -23 -36 -29 -47 -8 -15 -19 -19 -44 -17 -19 2 -41 10 -50 18 -8 8
-35 14 -58 14 -57 0 -77 13 -85 54 -4 19 -13 48 -21 63 -17 31 -20 109 -6 118
6 3 9 23 8 45 -1 29 -4 36 -10 24 -5 -8 -6 -26 -3 -39 3 -13 2 -25 -3 -27 -11
-4 -21 -97 -10 -103 12 -8 -1 -35 -17 -35 -8 0 -14 -7 -14 -15 0 -9 -16 -41
-35 -71 -22 -33 -37 -71 -39 -95 -3 -38 -10 -54 -24 -54 -15 -1 -62 -38 -61
-49 0 -7 2 -6 6 2 2 6 11 12 19 12 8 0 14 5 14 10 0 6 6 10 13 10 27 0 41 20
43 65 2 32 11 55 28 75 14 17 30 45 37 64 19 53 44 53 59 -1 15 -50 31 -62 95
-67 25 -2 51 -9 58 -15 13 -10 45 -19 80 -20 30 -2 19 -33 -28 -78 -40 -38
-65 -77 -65 -102 0 -4 17 -13 37 -20 32 -12 38 -12 49 3 11 15 13 14 19 -14 6
-27 9 -29 22 -18 20 16 62 11 85 -9 14 -13 17 -30 15 -89 -2 -62 1 -76 19 -96
44 -49 58 -83 46 -117 -6 -17 -9 -38 -5 -46 4 -11 -4 -17 -26 -21 -26 -6 -31
-11 -31 -36 0 -55 -121 -148 -193 -148 -8 0 -25 16 -36 36 -18 29 -26 35 -46
31 -16 -3 -25 0 -25 9 0 18 -40 44 -67 44 -15 0 -27 9 -35 25 -6 14 -31 37
-56 51 -36 22 -49 25 -63 15 -17 -10 -18 -8 -9 14 8 21 6 27 -13 37 -12 6 -43
12 -69 12 -32 0 -48 4 -48 13 0 7 -10 31 -22 54 -11 22 -21 53 -22 67 -1 23
-6 27 -44 34 -23 4 -55 15 -71 24 l-29 17 30 28 c16 16 35 29 42 29 8 0 16 6
19 14 4 9 -7 7 -34 -8 -21 -11 -39 -27 -39 -33 0 -7 -5 -13 -11 -13 -14 0 -79
-53 -79 -65 0 -6 3 -6 8 0 20 29 56 32 107 9 27 -13 58 -24 68 -24 9 0 17 -7
17 -15 0 -9 9 -35 20 -57 11 -23 20 -49 20 -57 0 -33 17 -46 43 -34 18 8 36 9
62 2 34 -10 36 -12 30 -41 -7 -29 -6 -30 23 -23 37 8 86 -20 113 -64 14 -24
26 -31 49 -31 23 0 33 -6 42 -25 8 -18 19 -25 39 -25 21 0 32 -7 44 -30 12
-23 22 -30 46 -30 24 0 30 -4 25 -15 -3 -8 -2 -15 3 -15 5 0 11 9 14 20 6 24
20 25 43 3 11 -12 30 -16 60 -14 25 1 44 -2 44 -8 0 -5 9 -9 20 -8 55 4 -8 27
-74 27 -58 0 -60 19 -6 61 26 22 57 57 68 79 11 22 31 49 44 60 19 14 24 26
21 47 -4 24 0 31 24 42 15 7 35 17 43 21 8 4 16 15 18 24 2 9 17 31 33 48 52
57 60 68 57 81 -4 21 29 71 62 95 17 13 36 33 41 46 6 12 20 28 31 35 11 7 17
8 13 2 -6 -11 17 -41 32 -41 32 0 39 -96 9 -128 -19 -22 -21 -42 -3 -43 32 -3
37 -5 37 -11 1 -51 1 -50 -35 -46 -31 4 -35 1 -35 -19 0 -15 10 -28 29 -37 15
-8 36 -27 45 -41 11 -17 23 -24 34 -21 62 18 69 18 75 -5 6 -22 -15 -104 -34
-139 -39 -70 -41 -78 -26 -102 8 -13 18 -44 21 -69 6 -38 3 -48 -14 -64 -11
-10 -20 -22 -20 -27 0 -5 7 -2 15 6 9 9 23 19 31 24 13 7 13 16 -2 73 -21 81
-21 115 0 137 9 10 16 27 16 38 0 11 8 35 18 54 13 28 15 42 7 69 -10 33 -11
33 -56 28 -42 -5 -48 -3 -68 24 -12 16 -28 29 -35 29 -8 0 -16 7 -20 15 -4 12
3 15 34 15 37 0 39 1 38 32 -1 39 -14 59 -34 51 -19 -7 -18 6 2 28 15 17 17
17 40 -8 13 -14 24 -36 24 -48 0 -11 6 -30 14 -40 13 -18 14 -18 24 1 10 18
36 35 146 92 22 12 33 12 47 3 30 -18 46 -13 68 24 11 19 26 35 32 35 7 0 20
6 28 14 9 7 30 18 46 23 22 7 29 15 27 29 -2 17 6 22 50 31 40 8 57 8 70 -2
30 -20 78 -94 85 -128 3 -18 15 -44 26 -58 24 -34 16 -64 -23 -78 -34 -11 -36
-18 -14 -42 15 -17 14 -22 -15 -72 -17 -30 -31 -57 -31 -61 0 -3 11 -6 25 -6
26 0 32 -9 15 -26 -6 -6 -3 -14 10 -22 16 -10 22 -8 39 14 15 19 26 24 43 19
18 -5 20 -4 8 4 -23 16 -40 13 -61 -12 -20 -21 -20 -21 -14 -1 6 23 -17 50
-35 39 -17 -10 -11 8 14 45 33 49 40 76 21 84 -23 8 -18 23 10 30 39 10 50 41
27 80 -11 18 -25 50 -32 72 -7 21 -24 54 -38 72 -14 18 -26 48 -28 67 -2 32 0
35 32 41 19 3 34 12 34 20 0 14 15 18 58 14 23 -2 70 28 127 81 17 15 43 28
60 30 39 2 114 -11 121 -22 3 -5 11 -6 17 -2 6 4 26 6 44 4 28 -2 35 2 44 26
6 15 13 44 16 63 9 53 33 90 61 90 13 0 32 5 43 11 11 6 37 12 57 14 20 2 49
6 63 10 23 6 27 3 33 -26 3 -18 8 -30 11 -28 2 3 1 18 -4 35 -6 23 -13 29 -32
27 -61 -5 -97 -11 -134 -23 -59 -18 -91 -11 -87 19 2 19 0 22 -12 12 -11 -9
-12 -20 -6 -42 13 -45 -16 -166 -41 -174 -11 -4 -27 -1 -35 6 -11 9 -18 9 -22
2 -5 -7 -22 -6 -57 3 -72 20 -112 10 -166 -39 -60 -55 -84 -69 -112 -62 -14 4
-32 -1 -47 -13 -14 -11 -35 -22 -46 -26 -18 -5 -22 -2 -28 26 -5 27 -2 36 24
59 16 15 31 37 31 48 4 68 3 84 -8 88 -7 3 -13 14 -13 24 0 21 -47 79 -64 79
-6 0 -22 9 -36 20 -14 11 -31 20 -38 20 -7 0 -26 14 -42 30 -25 26 -28 33 -18
50 17 27 45 31 84 13 19 -9 37 -13 41 -9 11 10 -28 38 -44 32 -8 -3 -17 10
-23 35 -13 46 -7 74 14 66 8 -3 20 1 27 9 7 8 18 13 26 10 7 -3 13 1 13 10 0
12 6 15 24 10 14 -3 28 -1 31 4 4 6 10 8 15 5 4 -3 37 10 72 28 58 30 63 35
63 66 0 20 6 36 18 42 9 6 17 19 17 30 0 10 22 40 49 67 26 26 51 57 55 69 12
38 85 102 130 113 79 19 147 44 154 56 12 22 88 22 117 0 19 -14 19 -15 -5
-63 -13 -26 -32 -57 -42 -67 -21 -23 -23 -61 -5 -96 7 -14 24 -56 38 -94 18
-52 21 -70 11 -74 -6 -2 -12 -12 -12 -23 0 -10 -4 -19 -10 -19 -5 0 -10 -20
-10 -45 0 -39 -4 -47 -40 -76 -25 -20 -40 -40 -39 -53 0 -17 2 -16 11 7 5 15
14 27 20 27 21 0 58 51 58 81 0 16 4 37 9 47 35 69 35 71 16 125 -10 29 -27
68 -37 87 -23 44 -23 75 0 98 30 30 63 103 62 136 -1 17 -1 33 0 36 7 18 9
100 2 104 -5 3 -9 -9 -9 -27 0 -18 -2 -47 -4 -64 -3 -28 -7 -32 -24 -25 -35
13 -106 7 -119 -9 -12 -16 -86 -49 -111 -49 -10 0 -15 10 -15 28 0 38 -11 51
-50 62 -29 8 -38 6 -66 -15 -18 -14 -37 -25 -42 -25 -5 0 -23 23 -41 51 -27
44 -35 50 -54 44 -12 -4 -38 -8 -57 -9 -34 -1 -35 0 -33 34 1 19 6 36 12 38 6
2 23 28 37 58 15 32 41 65 62 82 20 15 43 35 50 44 7 10 19 18 26 18 16 0 86
75 86 91 0 11 140 149 151 149 3 0 11 11 17 24 16 36 5 104 -24 135 -15 16
-20 27 -12 30 6 2 20 -6 30 -19 10 -12 18 -18 18 -12 0 17 -30 42 -50 42 -24
0 -90 31 -90 42 0 5 7 20 16 34 9 13 14 27 10 31 -3 3 -2 11 2 17 5 6 -1 28
-14 51 -26 43 -33 41 -10 -3 17 -34 17 -78 0 -93 -8 -6 -14 -17 -14 -24 0 -19
-30 -27 -36 -10 -4 8 -19 15 -34 15 -16 0 -51 11 -78 25 -28 14 -57 25 -65 25
-9 0 -18 4 -21 9 -3 5 -30 8 -58 8 -31 -1 -59 3 -66 11 -16 14 -51 16 -72 2
-9 -5 -19 -5 -27 2 -16 13 -17 58 -2 58 6 0 9 6 6 14 -3 7 -1 18 4 23 6 6 7
22 4 36 -7 25 -29 37 -72 37 -32 0 -28 13 10 34 107 62 265 163 284 181 12 12
39 33 60 45 21 13 40 25 42 27 3 2 -4 10 -15 17 -18 14 -16 16 26 35 61 28
117 27 147 -1 18 -17 26 -19 32 -10 6 9 12 7 26 -9 19 -20 19 -20 -8 -14 -36
10 -36 -11 3 -55 16 -19 29 -39 30 -43 0 -13 40 -62 40 -50 0 5 -17 34 -38 64
-57 81 -56 78 -25 76 25 -2 28 1 26 29 -1 26 3 33 21 36 31 6 46 -1 46 -23 0
-12 7 -19 19 -19 11 0 23 -5 27 -11 5 -8 12 -5 23 8 20 25 70 39 75 21 3 -7 7
-24 10 -38 4 -15 24 -36 51 -53 43 -27 65 -29 65 -4 0 7 -4 6 -10 -3 -7 -12
-12 -12 -29 5 -12 10 -31 23 -44 29 -13 7 -23 23 -25 38 -5 39 -22 49 -65 37
-20 -5 -37 -15 -37 -21 0 -9 -3 -9 -11 -1 -6 6 -18 9 -25 6 -9 -3 -14 2 -14
15 0 15 -9 22 -30 27 -21 5 -35 17 -46 41 -9 19 -23 34 -30 34 -8 0 -14 7 -14
15 0 8 7 15 15 15 8 0 15 5 15 10 0 6 6 10 13 10 16 0 41 54 27 58 -5 2 -10
12 -10 23 0 10 -4 19 -9 19 -5 0 -11 10 -14 21 -4 16 -10 20 -24 14 -10 -5
-27 -8 -38 -7 -11 1 -36 3 -55 4 -50 4 -57 22 -20 55 24 22 32 38 34 68 1 29
11 49 34 75 18 19 30 40 27 47 -2 7 2 13 10 13 8 0 15 7 15 15 0 9 9 15 21 15
12 0 23 8 26 19 3 12 36 33 93 59 86 40 88 41 106 91 13 38 23 51 38 52 18 1
17 2 -4 8 -60 18 -88 20 -99 7z m-151 -218 c0 -5 -7 -8 -15 -8 -21 0 -55 -31
-55 -51 0 -10 -13 -31 -29 -47 -20 -20 -29 -39 -29 -58 1 -44 -10 -69 -37 -84
-17 -9 -25 -22 -25 -39 0 -20 -13 -35 -50 -61 -28 -19 -60 -50 -71 -68 -18
-28 -26 -32 -48 -27 -16 3 -39 -1 -57 -10 -16 -8 -48 -15 -72 -15 -23 0 -54
-7 -67 -16 -24 -16 -25 -15 -25 7 0 31 28 59 59 59 14 0 32 4 40 9 11 7 9 11
-8 20 -11 7 -21 18 -21 25 0 7 -9 21 -20 31 -19 17 -20 17 -38 -5 l-19 -23 4
42 c2 33 -2 49 -22 75 -17 22 -25 46 -25 72 l0 39 93 34 c50 19 151 51 222 72
114 34 141 38 222 36 51 -1 93 -5 93 -9z m-645 -185 c1 -17 14 -46 27 -65 14
-18 24 -45 23 -59 -2 -36 -50 -95 -88 -108 -17 -6 -40 -20 -52 -31 -11 -10
-60 -45 -108 -78 l-88 -58 -44 20 c-46 22 -59 46 -25 46 12 0 44 25 76 57 50
52 55 61 49 88 -14 57 -8 126 12 141 25 19 185 83 202 81 8 -1 15 -16 16 -34z
m-253 -111 c-2 -16 1 -46 7 -67 10 -36 9 -38 -38 -86 -28 -29 -57 -49 -70 -49
l-21 0 20 38 c11 20 25 45 30 55 24 43 27 53 16 70 -9 14 -6 22 19 42 39 31
42 31 37 -3z m796 -28 c21 -14 25 -14 47 0 22 15 25 15 25 1 0 -9 7 -18 16
-22 9 -3 14 -13 11 -24 -3 -11 -1 -19 3 -19 4 0 6 -9 3 -20 -3 -11 -12 -20
-19 -20 -8 0 -14 -4 -14 -9 0 -5 -9 -11 -20 -14 -25 -7 -28 -47 -2 -47 20 0
60 -62 43 -68 -6 -2 -11 -13 -11 -24 0 -20 -1 -20 -19 -4 -13 12 -21 14 -26 6
-5 -8 -14 -5 -29 8 -18 17 -28 19 -76 12 -69 -10 -174 -57 -139 -62 34 -5 33
-20 -4 -45 -42 -29 -43 -29 -51 3 -5 19 -2 30 10 39 16 11 15 13 -7 18 -13 3
-61 9 -107 13 l-82 7 6 -34 c3 -19 7 -42 9 -51 2 -10 -1 -21 -7 -24 -5 -3 -7
-12 -4 -19 2 -7 -8 -19 -22 -26 -15 -8 -39 -26 -53 -41 -24 -25 -24 -28 -11
-54 13 -25 13 -28 -9 -45 -23 -17 -45 -19 -80 -4 -19 7 -42 76 -33 98 3 10 -6
24 -25 38 -17 13 -31 29 -31 37 0 7 -6 23 -12 35 -7 12 -13 33 -13 47 -1 28
-35 43 -35 15 0 -9 -5 -13 -11 -9 -6 3 -15 1 -19 -7 -7 -10 -11 -10 -24 0 -9
8 -16 19 -16 25 0 6 35 33 78 60 l77 49 73 -22 c69 -20 74 -20 105 -5 17 9 43
25 56 35 15 12 40 19 70 19 25 0 58 6 72 14 14 7 39 11 57 8 26 -3 33 0 45 24
15 28 36 47 113 99 43 29 61 31 92 9z m-864 -20 c3 -9 0 -26 -6 -38 -7 -13
-24 -44 -38 -70 -24 -45 -27 -48 -59 -42 -43 7 -44 8 -26 42 8 16 15 43 15 60
0 27 6 34 38 47 49 20 69 20 76 1z m450 -34 c14 -30 14 -30 -13 -30 -35 0 -63
-30 -66 -71 -4 -50 -35 -60 -114 -36 l-63 19 28 24 c16 14 50 35 75 49 26 13
49 31 52 40 4 8 15 15 25 15 11 0 25 7 32 15 15 18 25 13 44 -25z m-841 -114
c21 -27 25 -41 20 -70 -6 -36 -16 -45 -28 -26 -3 6 -14 10 -23 10 -10 0 -35 9
-57 20 -22 11 -51 20 -66 20 -15 0 -32 6 -38 14 -18 22 61 65 120 66 41 0 50
-4 72 -34z m222 -18 c-3 -41 -32 -64 -55 -43 -21 19 -34 19 -27 2 3 -8 1 -20
-4 -28 -12 -20 -32 2 -27 32 2 18 13 25 45 34 23 5 48 16 55 23 16 16 16 16
13 -20z m95 -18 c0 -15 13 -26 45 -40 34 -15 45 -25 45 -41 0 -12 8 -31 17
-41 16 -18 15 -19 -23 -13 -27 5 -58 1 -99 -13 -33 -11 -62 -19 -65 -17 -4 2
-15 29 -25 60 -21 60 -22 57 25 84 12 8 12 12 1 25 -12 14 -8 16 33 16 40 0
46 -3 46 -20z m-404 -45 c10 -8 28 -15 40 -15 11 0 23 -3 27 -6 8 -8 -71 -74
-88 -74 -7 0 -18 -7 -25 -15 -7 -8 -23 -15 -36 -15 -26 0 -26 -2 15 93 21 50
35 56 67 32z m293 -83 l21 -52 -50 -25 c-55 -28 -67 -26 -108 18 -24 25 -24
25 -3 32 12 4 21 15 21 26 0 24 22 49 43 49 8 0 20 7 28 16 15 18 17 15 48
-64z m-99 63 c0 -2 -9 -12 -19 -22 -10 -10 -21 -27 -23 -38 -2 -14 -10 -19
-26 -17 -17 3 -22 -2 -22 -20 l-1 -23 -18 23 c-23 26 -48 29 -54 5 -4 -15 -5
-14 -6 3 -2 30 38 62 87 70 23 4 45 11 48 15 5 9 34 13 34 4z m869 -31 c1 -1
0 -7 -4 -13 -9 -15 -118 -14 -133 1 -24 24 -11 29 61 22 39 -3 74 -8 76 -10z
m2 -60 c5 -14 9 -29 9 -33 0 -7 -114 -81 -125 -81 -2 0 -8 24 -15 53 -22 102
-28 92 51 89 64 -3 71 -6 80 -28z m-458 -3 c9 -16 17 -39 17 -50 0 -14 9 -25
25 -31 25 -9 31 -26 17 -45 -12 -16 -69 -16 -82 0 -7 8 -18 15 -25 15 -7 0
-18 7 -25 15 -7 9 -21 13 -31 10 -13 -4 -19 -1 -19 9 0 8 -17 28 -37 45 -20
17 -33 34 -29 38 4 5 35 7 68 6 33 -2 68 2 77 7 23 14 25 13 44 -19z m-589
-15 c3 -14 22 -46 42 -71 20 -26 32 -51 27 -55 -35 -32 -178 -130 -189 -130
-27 0 -84 45 -94 74 -13 39 -13 39 12 33 35 -10 47 7 35 51 -15 55 12 91 66
92 24 0 40 5 43 15 10 25 51 18 58 -9z m105 -22 c9 3 29 -6 45 -18 l29 -24
-43 -22 -42 -21 -25 23 c-34 32 -45 55 -38 79 6 19 7 19 32 -1 15 -11 33 -18
42 -16z m284 22 c7 -18 -10 -32 -45 -38 -22 -4 -28 -1 -28 12 0 29 63 52 73
26z m57 -58 c0 -5 -10 -6 -22 -2 -30 9 -32 10 -24 30 6 15 8 15 26 -1 11 -10
20 -22 20 -27z m-140 16 c0 -13 7 -15 39 -9 33 5 40 4 45 -13 9 -28 -11 -77
-27 -64 -6 5 -33 13 -60 16 -52 8 -68 -5 -48 -42 9 -17 7 -21 -11 -25 -12 -4
-28 -2 -34 4 -9 7 -31 7 -70 0 -32 -6 -59 -11 -62 -11 -2 0 5 12 16 28 11 15
19 31 18 36 -1 9 161 95 182 95 6 1 12 -6 12 -15z m604 -36 c3 -17 5 -32 4
-33 -2 0 -23 -13 -46 -29 -24 -15 -45 -26 -47 -24 -21 25 -22 45 -1 68 50 56
81 62 90 18z m-417 -12 c13 -2 40 -15 62 -29 26 -17 42 -22 49 -15 7 7 17 6
33 -3 31 -16 40 -30 33 -51 -4 -13 3 -19 27 -26 l33 -8 -68 -42 c-65 -42 -103
-48 -73 -14 27 33 57 94 56 115 -1 20 -2 21 -6 2 -3 -11 -14 -32 -25 -47 -16
-23 -23 -26 -39 -18 -15 8 -24 6 -40 -9 -21 -20 -21 -20 -70 7 -27 15 -49 31
-49 36 0 5 -7 17 -16 27 -14 15 -14 20 0 54 14 33 19 37 43 31 16 -3 38 -8 50
-10z m-777 -46 c0 -5 9 -10 21 -10 15 0 25 -11 36 -38 8 -22 28 -46 45 -56 16
-10 26 -22 21 -26 -4 -4 -64 -26 -133 -48 -142 -47 -212 -52 -242 -17 -26 30
-22 41 20 51 23 6 41 17 47 32 5 12 13 22 17 22 5 0 8 6 8 14 0 8 12 24 26 35
25 20 27 20 40 4 8 -11 13 -13 14 -6 0 7 6 10 14 7 7 -3 21 6 30 20 17 26 36
35 36 16z m374 -2 c-32 -57 -75 -95 -119 -105 -54 -12 -53 -10 46 62 81 59 83
61 73 43z m264 -11 c2 -10 -4 -20 -15 -24 -10 -4 -21 -11 -26 -17 -8 -12 -46
30 -47 52 0 22 84 11 88 -11z m57 -49 c35 -36 99 -78 119 -78 8 0 19 -7 26
-16 11 -13 10 -18 -7 -35 l-20 -21 -49 36 c-27 19 -65 49 -85 65 -20 17 -42
31 -48 31 -17 0 -13 21 7 36 23 18 21 18 57 -18z m-199 -54 c5 -74 -12 -124
-42 -124 -13 0 -26 5 -30 11 -14 23 -5 72 17 95 12 13 18 24 12 24 -5 0 -18
-9 -29 -21 -18 -20 -21 -53 -12 -129 2 -17 -2 -25 -12 -25 -8 0 -18 -4 -22
-10 -13 -19 -27 44 -29 137 l-2 93 29 6 c16 4 42 7 58 8 25 1 28 -2 22 -24 -4
-14 -2 -25 4 -25 5 0 10 14 10 32 0 56 22 16 26 -48z m81 43 c10 -12 26 -21
36 -19 10 2 25 -2 33 -9 13 -10 12 -14 -2 -30 -16 -18 -16 -20 0 -38 16 -17
16 -23 3 -62 -10 -28 -22 -46 -35 -49 -11 -3 -31 -18 -43 -34 l-22 -28 -13 25
c-10 18 -19 24 -34 20 -25 -7 -27 19 -3 73 11 25 16 61 14 101 -2 62 -1 65 41
72 4 0 15 -9 25 -22z m-237 -113 l0 -85 -29 20 c-16 12 -33 21 -38 21 -14 0
-93 82 -88 90 2 4 31 13 64 19 33 7 63 16 66 22 16 24 25 -9 25 -87z m528 77
c21 -13 -12 -34 -39 -26 -22 7 -22 8 -4 21 22 16 25 17 43 5z m182 -7 c8 -1
25 -2 37 -3 23 -1 39 -33 26 -53 -21 -34 -20 -84 2 -108 10 -11 22 -17 28 -13
19 12 67 13 67 1 0 -7 16 -9 50 -5 28 3 50 2 50 -2 0 -11 35 -23 78 -27 18 -2
47 -14 65 -27 17 -13 40 -22 51 -19 10 2 22 -2 26 -8 4 -7 27 -14 50 -15 35
-2 48 -10 86 -49 36 -39 44 -54 44 -86 0 -48 -8 -70 -25 -70 -8 0 -17 -9 -20
-21 -4 -11 -29 -36 -56 -56 -27 -19 -57 -49 -65 -67 -19 -36 -73 -96 -88 -96
-6 0 -19 -9 -31 -20 -11 -11 -35 -32 -53 -46 -18 -14 -44 -49 -58 -78 -14 -28
-33 -66 -42 -84 -17 -33 -33 -41 -87 -45 -19 -2 -33 -10 -41 -25 -11 -22 -12
-21 -53 33 -23 30 -47 55 -54 55 -7 0 -23 9 -36 19 -28 22 -41 95 -18 104 8 3
18 22 21 42 4 21 11 45 15 54 5 9 14 34 21 55 11 36 11 40 -10 56 -16 12 -22
29 -25 71 -1 30 -3 57 -4 62 -2 12 -44 8 -75 -8 -16 -8 -46 -18 -68 -21 -21
-4 -41 -11 -44 -15 -3 -5 -12 -2 -20 6 -20 20 -49 19 -81 -2 l-26 -17 7 39
c13 70 58 210 69 214 6 2 35 29 65 60 29 31 70 73 90 93 34 36 35 38 18 56
-16 18 -15 21 31 50 26 17 52 28 57 24 6 -4 18 -7 26 -8z m-336 -39 c24 -14
51 -34 62 -46 18 -20 18 -21 -6 -39 -22 -16 -27 -17 -41 -4 -8 8 -25 14 -37
14 -17 0 -22 6 -22 28 0 15 -5 33 -11 39 -10 10 -5 33 7 33 3 0 25 -11 48 -25z
m-521 -24 c21 -23 33 -42 27 -46 -5 -3 -10 -14 -10 -24 0 -10 -8 -25 -18 -34
-17 -16 -21 -15 -63 11 -42 27 -79 69 -79 91 0 8 71 38 95 40 6 1 28 -17 48
-38z m-143 -36 c12 -19 25 -35 30 -35 5 0 11 -9 15 -19 7 -24 -62 -171 -81
-171 -8 0 -14 4 -14 9 0 5 -8 12 -17 15 -21 7 -76 82 -69 94 2 4 25 18 51 31
43 22 45 24 39 56 -11 62 13 73 46 20z m875 25 c8 -13 -13 -40 -31 -40 -8 0
-14 10 -14 25 0 18 5 25 19 25 11 0 23 -5 26 -10z m-51 -59 c7 -10 -101 -127
-109 -119 -3 3 2 25 10 48 9 24 13 50 11 56 -3 7 11 27 32 45 l36 32 7 -26 c4
-14 10 -30 13 -36z m-886 19 c10 -28 9 -30 -32 -51 l-43 -21 -27 26 c-14 15
-26 30 -26 35 0 7 82 38 107 40 6 1 16 -12 21 -29z m285 -16 c47 -25 97 -65
97 -78 0 -7 -15 -27 -34 -45 l-34 -33 -38 25 c-22 13 -48 34 -58 46 -17 19
-18 23 -4 39 9 9 19 27 22 40 9 26 9 26 49 6z m447 -9 c7 -9 22 -14 34 -13 22
3 24 -11 5 -58 -7 -21 -13 -23 -36 -18 -67 16 -73 21 -73 64 0 37 2 40 29 40
16 0 34 -7 41 -15z m-262 -7 c10 -13 12 -19 12 -38 0 -5 9 -10 20 -10 22 0 23
-3 14 -37 -9 -32 -21 -28 -38 11 -8 18 -19 37 -25 40 -13 8 -15 46 -2 46 5 0
13 -6 19 -12z m-283 -59 c19 -17 35 -35 35 -40 0 -18 -77 -7 -118 17 -8 5 23
54 34 54 7 0 29 -14 49 -31z m460 -56 c-4 -49 -11 -90 -15 -93 -3 -3 -9 -13
-13 -22 -10 -28 -46 -22 -59 10 -7 15 -21 40 -31 55 -18 26 -18 30 -3 65 8 20
15 31 15 25 1 -22 27 -14 54 17 15 17 34 30 43 30 14 0 15 -11 9 -87z m-185
42 c8 -16 19 -33 24 -37 11 -7 16 -48 7 -48 -24 0 -91 80 -91 107 0 23 45 7
60 -22z m28 -97 c32 -16 48 -30 50 -45 3 -22 0 -23 -62 -23 -63 0 -67 2 -111
42 l-45 42 37 38 37 37 23 -34 c13 -20 44 -45 71 -57z m252 72 c12 -6 17 -16
13 -26 -5 -15 -7 -15 -15 0 -13 23 -27 20 -34 -9 -15 -59 -61 -51 -50 9 6 32
10 36 37 36 17 0 39 -5 49 -10z m-582 -17 c12 -3 22 -12 22 -19 0 -17 -57 -54
-82 -54 -10 0 -18 -4 -18 -9 0 -5 -9 -7 -20 -4 -22 6 -26 18 -9 29 6 3 18 22
26 41 12 29 18 34 36 28 12 -4 32 -9 45 -12z m117 -13 c3 -5 -1 -21 -10 -34
-14 -21 -22 -24 -48 -19 -42 8 -43 9 -28 36 12 23 74 36 86 17z m449 -87 l-18
-58 -9 33 c-8 25 -6 41 8 73 28 60 41 26 19 -48z m-428 51 c-3 -9 -6 -31 -6
-50 0 -39 -23 -47 -41 -13 -9 17 -7 24 10 40 12 11 21 24 21 29 0 6 5 10 11
10 6 0 8 -7 5 -16z m26 -36 c-9 -9 -12 -7 -12 12 0 19 3 21 12 12 9 -9 9 -15
0 -24z m-144 4 c2 -7 -6 -12 -21 -12 -13 0 -30 -7 -37 -15 -15 -18 -43 -20
-38 -2 5 14 68 47 82 43 6 -1 12 -8 14 -14z m505 -34 c3 -24 9 -54 13 -68 7
-22 3 -20 -29 14 -42 44 -44 52 -20 78 24 27 30 23 36 -24z m-453 24 c0 -4
-18 -28 -40 -52 -57 -63 -59 -75 -16 -119 28 -29 33 -40 24 -49 -9 -9 -21 -3
-55 30 -38 37 -43 47 -43 87 0 51 29 91 66 91 13 0 26 5 29 10 7 12 35 13 35
2z m130 -2 c0 -6 15 -19 33 -30 l32 -20 -30 0 c-66 0 -91 20 -63 48 15 15 28
16 28 2z m-91 -50 c6 0 11 -15 11 -35 0 -19 -2 -35 -4 -35 -2 0 -11 -3 -19 -6
-11 -4 -16 2 -19 17 -2 13 -13 28 -25 34 l-22 11 22 22 c19 20 23 21 33 7 6
-8 16 -15 23 -15z m321 -21 c0 -3 -20 -25 -45 -48 -25 -23 -45 -46 -45 -51 0
-14 42 -50 57 -50 10 0 11 -8 6 -27 -11 -43 -9 -83 6 -151 13 -57 12 -67 -2
-98 -12 -25 -23 -34 -41 -34 -27 0 -46 -25 -46 -60 0 -12 -7 -29 -16 -38 -15
-15 -19 -14 -55 6 -21 12 -47 22 -58 22 -17 0 -19 -6 -17 -49 1 -28 7 -56 13
-63 6 -7 15 -23 22 -35 10 -20 9 -21 -17 -14 -17 5 -33 20 -44 43 -9 19 -28
42 -42 52 -14 9 -26 25 -26 35 0 19 -33 55 -42 46 -12 -13 -18 48 -8 86 6 22
9 43 6 48 -3 4 -1 21 5 37 13 34 -12 104 -36 104 -8 0 -15 7 -15 16 0 10 5 14
15 10 8 -3 22 -9 30 -12 19 -8 31 22 15 40 -9 11 -8 20 3 38 8 13 17 35 21 51
4 15 12 27 19 27 22 0 40 17 42 41 1 13 3 30 4 38 1 9 9 11 29 6 33 -8 110 -7
177 3 46 7 85 -2 85 -19z m74 -22 l31 -39 -25 -20 c-51 -40 -68 -56 -73 -69
-4 -9 -8 -10 -14 -4 -4 6 -20 16 -35 22 -39 17 -35 36 16 84 29 26 43 46 39
56 -11 29 29 9 61 -30z m-438 -51 c-4 -20 -10 -36 -15 -36 -4 0 -20 13 -35 29
-30 31 -28 47 8 61 32 12 50 -10 42 -54z m776 -38 c4 -48 9 -65 25 -75 20 -13
20 -14 -10 -101 -17 -48 -37 -92 -45 -98 -7 -5 -13 -17 -11 -25 4 -26 -19 -67
-43 -74 -13 -4 -32 -17 -43 -30 -27 -33 -92 -41 -100 -14 -4 10 -9 19 -13 19
-15 0 -72 -40 -72 -50 0 -6 -12 -10 -27 -9 -16 1 -37 1 -48 1 -27 -2 -101 -70
-110 -100 -4 -13 -21 -32 -37 -42 l-31 -19 -28 29 c-16 16 -29 33 -29 38 0 5
-7 15 -15 22 -14 12 -22 100 -9 100 12 0 64 -34 64 -42 0 -15 27 -8 50 12 13
11 26 37 29 57 5 32 11 39 36 43 43 7 58 42 49 115 -4 33 -7 87 -8 120 -1 52
1 60 17 57 11 -2 17 4 17 17 0 17 23 39 69 66 10 6 12 2 6 -14 -7 -24 18 -30
32 -7 7 12 45 36 57 36 2 0 12 -8 21 -17 14 -13 21 -14 36 -5 10 7 34 12 53
12 19 0 38 5 41 11 7 11 42 27 61 28 7 1 13 -24 16 -61z m-852 -33 c35 -36 58
-65 50 -65 -8 0 -22 5 -30 10 -10 6 -21 3 -38 -13 -13 -12 -22 -17 -20 -12 1
6 -10 27 -25 47 -23 30 -27 43 -22 68 4 16 10 30 14 30 3 0 36 -29 71 -65z
m890 -380 c8 5 34 -24 73 -79 21 -31 43 -33 52 -7 9 29 84 39 118 17 22 -15
29 -15 67 -2 l42 14 30 -49 c34 -54 55 -61 95 -29 45 35 89 24 99 -25 5 -26 1
-32 -25 -43 -35 -15 -108 -85 -116 -112 -8 -24 -66 -88 -102 -112 -15 -10 -42
-18 -59 -18 -19 0 -34 -6 -38 -15 -3 -8 -14 -15 -23 -15 -10 0 -29 -7 -41 -16
-14 -10 -33 -14 -47 -10 -17 4 -27 1 -33 -11 -11 -21 -4 -91 9 -99 16 -9 -46
-54 -76 -54 -24 0 -36 -33 -25 -71 6 -19 10 -34 10 -35 0 -1 -11 -4 -24 -6
-15 -3 -27 0 -30 8 -3 7 -18 16 -33 20 -15 4 -40 15 -55 25 -14 11 -31 19 -37
19 -15 0 -90 69 -115 106 -11 18 -42 59 -68 92 l-47 60 24 83 c26 88 30 112
17 94 -11 -17 -85 -36 -96 -25 -5 5 -4 21 4 39 9 23 10 35 1 44 -6 8 -8 16 -5
20 3 3 -4 11 -16 17 -17 9 -20 17 -15 38 4 15 8 33 8 40 1 22 56 44 92 38 24
-5 34 -2 38 8 3 8 18 22 32 32 23 15 27 15 38 2 15 -19 67 -33 67 -18 0 5 6
10 13 10 8 0 22 9 33 21 10 11 33 27 51 34 18 8 33 19 33 25 0 6 16 -5 36 -24
20 -20 40 -33 44 -31z m-1240 -182 c0 -10 -8 -11 -27 -7 -39 9 -43 13 -43 34
0 19 1 19 35 3 19 -9 35 -23 35 -30z m223 13 c7 -21 6 -30 -4 -37 -20 -12 -39
9 -39 43 0 39 29 35 43 -6z m1342 -295 c3 -6 -4 -15 -15 -21 -16 -9 -20 -19
-18 -43 3 -29 -1 -34 -52 -59 -56 -29 -114 -36 -126 -17 -4 7 -9 30 -11 52 -3
37 -2 39 20 33 14 -3 34 2 52 14 17 11 38 20 48 20 10 0 20 7 23 15 7 17 69
21 79 6z m-1317 -533 c20 -20 130 -21 188 -3 29 9 58 14 64 10 13 -8 13 -38
-2 -70 -9 -21 -9 -31 2 -48 7 -12 19 -40 25 -62 11 -37 15 -40 48 -41 29 -2
36 2 39 19 5 33 28 33 28 -1 0 -16 7 -35 15 -42 29 -24 16 -48 -85 -149 -25
-26 -51 -57 -57 -71 -35 -82 -58 -120 -74 -125 -11 -4 -19 -14 -19 -24 0 -23
-19 -41 -45 -41 -34 0 -108 129 -94 166 4 12 5 39 2 62 -6 46 -28 62 -86 65
-30 2 -39 7 -43 25 -7 26 -19 28 -32 6 -7 -12 -17 -15 -36 -10 -41 10 -33 43
24 96 40 37 50 53 50 78 0 17 11 51 24 74 13 24 26 55 30 71 7 29 16 33 34 15z"/>
<path d="M8180 4922 c0 -7 4 -12 8 -12 4 0 44 -30 88 -67 44 -38 93 -79 109
-91 29 -23 29 -24 11 -38 -11 -8 -33 -14 -48 -14 -21 0 -32 -7 -40 -25 -6 -14
-20 -25 -30 -25 -10 0 -22 -11 -28 -24 -5 -13 -13 -25 -19 -27 -11 -4 -12 -14
-11 -116 0 -38 5 -63 11 -63 6 0 8 -7 5 -16 -4 -10 0 -21 10 -28 9 -7 17 -26
18 -42 2 -17 6 -36 9 -41 4 -6 4 -18 1 -27 -3 -9 -2 -16 4 -16 5 0 17 -26 25
-57 15 -51 15 -58 2 -66 -8 -4 -22 -22 -31 -39 l-17 -32 -19 24 -19 23 -22
-23 c-21 -24 -21 -24 -1 -6 21 17 23 17 38 -6 l17 -23 34 40 c19 22 34 36 35
31 0 -16 30 16 30 33 0 14 -2 14 -10 1 -8 -12 -10 -11 -10 8 0 13 -9 41 -20
64 -11 23 -23 64 -26 92 -4 28 -13 58 -21 67 -7 9 -11 24 -7 33 4 11 1 16 -10
16 -12 0 -15 8 -11 35 2 20 7 40 10 45 3 5 1 11 -5 15 -16 10 -12 62 5 69 8 3
15 12 15 21 0 8 9 15 20 15 11 0 26 12 34 29 12 22 24 29 58 34 23 3 44 11 46
17 3 8 8 8 18 -1 8 -6 14 -7 14 -2 0 5 -24 26 -52 48 -29 21 -82 64 -118 94
-36 30 -73 61 -82 69 -12 10 -18 11 -18 4z"/>
<path d="M5568 4913 c-10 -2 -18 -11 -18 -19 0 -11 4 -10 20 3 17 15 26 26 18
22 -2 -1 -11 -3 -20 -6z"/>
<path d="M7823 4882 c-6 -4 6 -7 27 -7 21 0 33 3 27 7 -7 4 -19 8 -27 8 -8 0
-20 -4 -27 -8z"/>
<path d="M8475 4636 c9 -15 15 -37 12 -47 -3 -10 1 -22 8 -27 7 -4 15 -16 18
-27 4 -18 5 -18 6 3 0 12 -5 25 -13 28 -7 3 -11 14 -9 27 3 14 -4 32 -17 47
l-22 25 17 -29z"/>
<path d="M8506 4469 c-4 -26 -2 -46 5 -55 13 -16 14 -15 -26 -33 -16 -7 -42
-20 -57 -27 -14 -8 -36 -14 -47 -14 -17 0 -21 -6 -20 -27 2 -24 2 -25 6 -5 2
12 11 22 20 22 8 0 29 7 46 16 58 31 67 34 82 34 17 0 20 25 5 35 -7 4 -8 24
-4 51 3 24 4 44 1 44 -2 0 -7 -19 -11 -41z"/>
<path d="M5731 4264 c0 -11 3 -14 6 -6 3 7 2 16 -1 19 -3 4 -6 -2 -5 -13z"/>
<path d="M8352 4255 c-17 -37 -14 -45 4 -12 9 16 14 31 11 33 -2 2 -9 -7 -15
-21z"/>
<path d="M5698 4198 c-10 -10 -14 -18 -9 -18 10 0 36 29 30 34 -2 1 -12 -6
-21 -16z"/>
<path d="M5680 4041 c0 -5 5 -13 10 -16 6 -3 10 -2 10 4 0 5 -4 13 -10 16 -5
3 -10 2 -10 -4z"/>
<path d="M5715 3970 c2 -14 5 -30 5 -37 0 -6 10 -15 21 -18 18 -6 20 -12 15
-44 -4 -25 -2 -31 4 -21 15 24 12 58 -7 69 -10 5 -23 24 -30 43 -9 21 -11 24
-8 8z"/>
<path d="M7588 3977 c-33 -13 -34 -18 -9 -41 19 -17 20 -17 38 3 9 12 25 21
34 21 25 0 49 11 49 21 0 12 -79 9 -112 -4z m24 -29 c-6 -6 -19 -7 -29 -4 -16
7 -16 9 7 21 26 14 41 2 22 -17z m61 25 c-7 -2 -19 -2 -25 0 -7 3 -2 5 12 5
14 0 19 -2 13 -5z"/>
<path d="M7893 3882 c0 -12 5 -22 9 -22 11 0 10 12 -2 30 -7 12 -9 10 -7 -8z"/>
<path d="M7822 3815 c-47 -43 -82 -99 -68 -112 3 -3 6 0 6 9 0 23 57 97 85
110 13 6 26 17 29 24 8 21 2 18 -52 -31z"/>
<path d="M5500 3357 c-14 -28 -36 -64 -50 -81 -18 -23 -19 -26 -4 -13 22 18
34 14 34 -13 0 -21 40 -40 83 -40 27 0 99 -27 255 -95 24 -11 32 -21 32 -40 0
-14 5 -25 12 -25 7 0 26 -13 43 -28 16 -16 50 -36 75 -46 32 -12 56 -32 83
-66 21 -28 43 -50 48 -50 6 0 15 14 20 30 6 17 17 30 24 30 20 0 55 49 55 76
0 12 -7 29 -15 38 -8 8 -15 22 -15 30 0 9 -7 16 -15 16 -12 0 -15 -13 -15 -57
0 -53 -26 -143 -41 -143 -4 0 -22 20 -40 45 -23 30 -50 51 -84 65 -57 24 -111
69 -117 97 -4 20 -28 33 -168 93 -52 22 -109 40 -127 40 -85 0 -110 50 -66
131 14 27 24 51 22 53 -2 2 -15 -19 -29 -47z m689 -389 c-17 -32 -24 -26 -20
20 3 44 4 45 16 22 9 -16 10 -31 4 -42z"/>
<path d="M7892 3370 c7 -11 25 -22 39 -25 17 -4 31 -16 38 -33 6 -15 20 -39
31 -53 12 -14 28 -50 35 -80 14 -52 14 -52 8 -9 -6 49 -16 75 -43 105 -10 11
-21 30 -25 43 -3 12 -21 29 -41 37 -19 8 -34 19 -34 24 0 6 -5 11 -10 11 -6 0
-5 -8 2 -20z"/>
<path d="M5445 3196 c67 -31 84 -52 150 -181 32 -60 54 -99 50 -85 -12 42
-108 214 -130 233 -26 23 -91 57 -107 57 -7 0 10 -11 37 -24z"/>
<path d="M8041 3092 c-1 -7 -8 -20 -16 -28 -8 -9 -15 -20 -15 -26 0 -6 9 1 21
16 11 14 18 32 16 39 -4 9 -6 9 -6 -1z"/>
<path d="M8021 2994 c0 -11 3 -14 6 -6 3 7 2 16 -1 19 -3 4 -6 -2 -5 -13z"/>
<path d="M8016 2944 c-8 -22 -8 -62 2 -67 4 -3 8 15 8 39 2 47 0 53 -10 28z"/>
<path d="M8020 2850 c1 -18 29 -70 30 -54 0 7 -7 25 -15 40 -8 16 -15 22 -15
14z"/>
<path d="M5903 2825 c-51 -31 -61 -57 -34 -84 11 -11 27 -31 36 -45 21 -31 38
-33 72 -6 14 11 34 20 44 20 30 0 43 37 25 65 -9 14 -16 31 -16 39 0 7 -8 17
-17 22 -39 16 -69 13 -110 -11z m86 4 c20 -7 30 -16 27 -24 -3 -8 2 -19 10
-26 20 -17 13 -53 -11 -58 -11 -2 -31 -12 -44 -22 -13 -11 -27 -19 -31 -19 -3
0 -22 21 -40 46 -38 53 -35 66 20 96 19 10 35 18 36 18 0 0 15 -5 33 -11z"/>
<path d="M5761 2525 c0 -28 -6 -56 -11 -61 -6 -6 -12 -35 -15 -65 -4 -52 -3
-55 30 -79 24 -17 35 -33 35 -51 0 -14 3 -29 8 -33 4 -4 8 -27 8 -51 1 -26 8
-51 18 -60 9 -9 16 -19 17 -23 0 -4 2 -17 5 -29 2 -13 -1 -23 -6 -23 -6 0 -10
-4 -10 -10 0 -21 20 -9 26 15 4 17 -1 37 -16 62 -14 24 -22 53 -22 80 1 23 -3
45 -8 48 -6 4 -10 18 -10 33 0 19 -9 33 -30 47 -35 24 -42 48 -29 100 15 56
22 110 16 131 -3 11 -5 -4 -6 -31z"/>
<path d="M7915 1949 c5 -15 2 -22 -14 -26 -12 -3 -21 -9 -21 -14 0 -12 7 -11
31 1 19 10 24 60 6 60 -5 0 -5 -9 -2 -21z"/>
<path d="M8125 1764 c2 -18 1 -34 -2 -38 -3 -3 -7 -29 -9 -58 -2 -39 -14 -77
-48 -145 -50 -99 -61 -135 -21 -64 14 23 25 47 25 52 0 5 11 26 23 47 29 45
50 168 36 209 -9 28 -9 28 -4 -3z"/>
<path d="M5555 1500 c-3 -5 -3 -14 0 -20 3 -5 2 -10 -4 -10 -14 0 -80 -44 -81
-54 0 -4 15 3 34 18 19 14 42 26 51 26 9 0 15 7 13 17 -2 11 6 19 22 24 l25 7
-27 1 c-15 1 -30 -3 -33 -9z"/>
<path d="M8001 1377 c-11 -19 -21 -46 -21 -59 0 -14 -6 -30 -13 -36 -7 -6 -33
-41 -58 -77 -24 -36 -47 -65 -51 -65 -4 0 -11 12 -14 28 -7 26 -20 42 -36 42
-4 0 -15 -14 -23 -31 -9 -16 -21 -29 -27 -27 -12 4 -108 -85 -108 -101 0 -6
-10 -11 -21 -11 -17 0 -20 5 -16 21 7 28 -2 49 -21 49 -12 0 -13 3 -4 12 20
20 15 47 -8 41 -14 -4 -20 0 -20 12 0 14 -3 15 -15 5 -8 -7 -15 -23 -15 -36 0
-13 -4 -24 -8 -24 -10 0 -52 -82 -52 -101 0 -8 12 9 25 38 14 29 30 55 35 58
6 3 10 14 10 24 0 14 6 17 25 13 28 -5 31 -12 13 -30 -9 -9 -8 -15 4 -24 9 -7
18 -24 20 -38 4 -32 44 -41 56 -13 10 26 86 93 105 93 9 0 18 9 22 19 3 11 12
24 20 31 11 9 17 5 29 -24 8 -20 19 -36 23 -36 9 0 59 60 86 104 10 16 25 35
33 43 8 8 14 24 14 36 0 12 9 37 21 56 11 18 18 35 16 38 -3 2 -14 -11 -26
-30z"/>
<path d="M5307 1255 c3 -16 10 -33 15 -36 4 -3 3 -19 -3 -37 -8 -23 -8 -36 1
-49 11 -17 11 -17 6 1 -4 10 -1 34 6 53 8 22 9 36 2 41 -5 4 -15 18 -22 32
-11 25 -11 24 -5 -5z"/>
<path d="M5321 1087 c-13 -21 -12 -21 5 -5 10 10 16 20 13 22 -3 3 -11 -5 -18
-17z"/>
<path d="M5300 1044 c0 -9 -10 -25 -22 -35 l-23 -20 28 17 c15 9 27 25 27 35
0 11 -2 19 -5 19 -3 0 -5 -7 -5 -16z"/>
<path d="M7268 959 c-36 -48 -88 -99 -102 -99 -7 0 -21 9 -31 20 -22 24 -53
26 -83 4 -22 -15 -25 -15 -45 5 -27 24 -59 19 -72 -12 -6 -13 -17 -21 -28 -19
-9 2 -17 -3 -17 -11 0 -8 -7 -28 -15 -43 -8 -16 -15 -43 -15 -61 0 -27 -3 -30
-22 -26 -13 3 -30 11 -38 16 -13 10 -13 9 0 -5 8 -9 27 -20 43 -23 26 -7 27
-5 27 28 0 37 33 121 43 111 7 -7 37 20 37 34 0 20 32 21 52 2 26 -24 41 -25
58 -5 18 21 58 19 72 -5 7 -11 18 -20 25 -20 26 0 71 36 102 83 25 37 37 48
52 44 10 -3 17 -1 13 4 -10 17 -33 9 -56 -22z"/>
<path d="M5204 928 l-29 -33 33 29 c17 17 32 31 32 33 0 8 -8 1 -36 -29z"/>
<path d="M5140 834 c-19 -24 -48 -51 -65 -59 -16 -9 -40 -21 -52 -28 -13 -6
-23 -17 -23 -23 0 -19 30 -25 46 -9 9 8 18 15 20 15 10 0 34 -28 34 -39 0 -6
5 -11 10 -11 15 0 12 10 -14 40 -16 20 -27 25 -37 19 -27 -17 -31 -9 -6 11 14
11 29 20 35 20 11 0 92 88 92 101 0 13 -2 12 -40 -37z m-110 -114 c0 -5 -2
-10 -4 -10 -3 0 -8 5 -11 10 -3 6 -1 10 4 10 6 0 11 -4 11 -10z"/>
<path d="M6031 794 c0 -11 3 -14 6 -6 3 7 2 16 -1 19 -3 4 -6 -2 -5 -13z"/>
<path d="M6266 783 c12 -2 32 -15 45 -29 12 -13 30 -24 38 -24 18 1 61 30 44
30 -7 0 -15 -4 -18 -10 -10 -17 -35 -11 -63 15 -15 14 -36 24 -47 24 -19 -2
-19 -2 1 -6z"/>
<path d="M5995 769 c-11 -17 1 -21 15 -4 8 9 8 15 2 15 -6 0 -14 -5 -17 -11z"/>
<path d="M6430 761 c14 -4 30 -18 37 -31 11 -21 13 -22 13 -6 0 23 -28 46 -55
45 -16 -1 -15 -2 5 -8z"/>
<path d="M5980 727 c0 -9 -6 -16 -12 -14 -16 3 -24 -61 -10 -75 7 -7 8 4 5 32
-4 31 -3 41 6 36 12 -8 28 20 17 31 -3 4 -6 -1 -6 -10z"/>
<path d="M5138 683 c7 -3 16 -2 19 1 4 3 -2 6 -13 5 -11 0 -14 -3 -6 -6z"/>
<path d="M5200 662 c19 -17 40 -28 47 -25 7 3 19 1 26 -5 9 -8 18 -4 34 14 12
13 17 24 12 24 -5 0 -14 -9 -21 -19 -7 -12 -17 -16 -27 -12 -9 4 -36 18 -61
30 l-45 22 35 -29z"/>
<path d="M6466 682 c-3 -5 -2 -19 1 -31 5 -20 11 -22 39 -18 18 3 34 2 36 -2
2 -4 17 -11 33 -14 28 -7 28 -6 -7 12 -21 10 -48 16 -62 14 -25 -5 -31 2 -27
35 2 14 -5 16 -13 4z"/>
<path d="M6687 625 c-14 -25 -23 -45 -18 -45 9 0 54 80 49 86 -2 2 -16 -17
-31 -41z"/>
<path d="M5352 640 c7 -10 14 -18 15 -16 6 6 -9 36 -18 36 -5 0 -4 -9 3 -20z"/>
<path d="M5420 581 c37 -36 45 -57 41 -103 -1 -9 3 -19 9 -23 5 -3 10 -18 10
-32 0 -16 7 -27 20 -30 11 -3 20 -9 20 -13 0 -17 40 -21 62 -6 20 14 24 14 46
0 17 -12 27 -13 35 -5 6 6 20 11 32 11 11 0 27 5 35 10 18 12 -45 2 -70 -10
-9 -5 -23 -2 -34 6 -16 11 -23 11 -47 -3 -26 -16 -29 -16 -47 0 -10 9 -24 17
-30 17 -7 0 -12 11 -12 24 0 14 -5 28 -10 31 -6 4 -10 14 -9 23 4 44 -4 65
-37 102 -20 22 -40 40 -45 40 -5 0 9 -17 31 -39z"/>
<path d="M5950 587 c-10 -20 -32 -40 -58 -52 -32 -16 -41 -26 -42 -46 0 -32
-54 -85 -83 -82 -20 3 -20 2 2 -7 22 -9 29 -6 59 24 22 21 35 44 35 60 0 14 4
26 8 26 21 0 77 46 88 72 18 40 10 43 -9 5z"/>
</g>
</svg>
